<?xml version="1.0" standalone="no"?>
<!DOCTYPE svg PUBLIC "-//W3C//DTD SVG 20010904//EN"
 "http://www.w3.org/TR/2001/REC-SVG-20010904/DTD/svg10.dtd">
<svg version="1.0" xmlns="http://www.w3.org/2000/svg"
 width="430.000000pt" height="430.000000pt" viewBox="0 0 430.000000 430.000000"
 preserveAspectRatio="xMidYMid meet">

<g transform="translate(0.000000,430.000000) scale(0.100000,-0.100000)"
fill="#000000" stroke="none">
<path d="M0 2150 l0 -2150 1490 0 c820 0 1490 3 1490 6 0 20 133 790 138 794
2 3 7 -1 9 -7 3 -7 10 -13 17 -13 17 0 59 -46 52 -58 -8 -13 61 -99 85 -105
10 -3 19 -14 19 -24 0 -11 14 -38 31 -61 l31 -42 45 32 c67 48 243 219 317
307 275 330 447 758 474 1183 10 142 1 357 -19 475 -58 350 -214 699 -437 974
-83 103 -281 291 -382 363 -198 142 -420 253 -632 316 -971 289 -2007 -165
-2453 -1074 -303 -618 -277 -1367 68 -1947 105 -176 175 -267 322 -415 147
-148 260 -238 403 -322 124 -73 127 -75 110 -89 -11 -9 -35 1 -116 50 -57 34
-140 89 -185 122 -108 79 -367 338 -441 444 -197 276 -317 561 -378 891 -31
167 -31 543 0 710 108 587 430 1079 919 1403 528 351 1205 441 1813 241 1368
-450 1889 -2105 1028 -3261 -105 -141 -287 -326 -402 -409 l-30 -21 37 -51
c20 -27 37 -54 37 -59 0 -5 -24 -67 -53 -139 -29 -71 -61 -148 -70 -171 l-17
-43 490 0 490 0 0 2150 0 2150 -2150 0 -2150 0 0 -2150z m2055 1860 c4 -58 13
-156 21 -218 18 -146 18 -154 -3 -150 -22 4 -31 37 -32 120 -1 37 -5 77 -10
90 -9 25 -87 85 -97 75 -3 -3 -1 -60 5 -125 14 -155 14 -172 -3 -172 -9 0 -15
21 -20 68 -4 37 -13 112 -21 167 -27 193 -28 234 -11 241 11 4 34 -11 71 -45
29 -28 56 -51 59 -51 3 0 2 15 0 33 -6 37 12 95 26 81 5 -5 12 -56 15 -114z
m221 -52 c-11 -236 -19 -301 -35 -306 -12 -4 -13 15 -7 117 8 131 4 141 -39
95 -23 -24 -35 -86 -39 -188 -1 -16 -6 -31 -13 -33 -21 -7 -26 44 -14 136 6
48 11 106 11 129 0 34 10 57 58 126 31 47 63 85 71 86 12 0 13 -26 7 -162z
m159 63 c31 -93 33 -81 -29 -126 -19 -14 -19 -15 7 -53 15 -21 27 -44 27 -52
0 -7 -18 -35 -40 -61 -22 -26 -44 -59 -50 -73 -5 -14 -16 -26 -25 -26 -28 0
-15 39 30 90 25 28 45 58 45 67 0 8 -14 31 -31 51 l-32 36 42 38 43 37 -21 56
c-21 57 -26 96 -14 109 11 11 19 -5 48 -93z m-753 -22 c13 -46 25 -69 45 -84
15 -11 43 -34 62 -51 l35 -32 -35 -58 c-41 -67 -52 -109 -39 -153 9 -33 -1
-49 -18 -28 -6 6 -22 84 -37 172 -14 88 -32 185 -40 216 -18 70 -19 92 -2 87
6 -3 20 -34 29 -69z m988 -15 c22 -54 40 -70 40 -36 0 29 40 86 52 74 8 -8 0
-41 -25 -114 -20 -57 -48 -150 -62 -208 -14 -58 -30 -116 -36 -130 -10 -23
-12 -24 -24 -7 -14 20 -9 55 24 150 15 44 18 64 10 84 -15 39 -51 86 -59 76
-3 -4 -19 -53 -34 -108 -33 -117 -55 -175 -69 -175 -10 0 -5 43 11 100 6 19
29 106 51 193 22 87 45 165 52 173 17 21 42 -4 69 -72z m-1238 -47 c12 -23 33
-80 48 -126 15 -47 31 -86 36 -88 5 -2 20 17 33 42 13 25 30 45 37 45 22 0 17
-16 -21 -69 -19 -26 -35 -57 -35 -68 0 -27 20 -83 30 -83 4 0 22 27 40 61 21
40 36 57 42 51 7 -7 -4 -37 -32 -91 -39 -75 -65 -99 -74 -68 -27 93 -84 256
-117 331 -37 87 -43 126 -18 110 5 -3 19 -24 31 -47z m1558 -16 c0 -26 -181
-406 -195 -409 -26 -6 -17 28 24 97 49 81 61 121 36 121 -41 0 -74 -34 -112
-117 -36 -78 -54 -96 -61 -61 -2 8 27 75 63 148 49 101 72 137 93 147 15 8 47
29 72 48 44 33 80 45 80 26z m-1471 -35 c14 -17 0 -29 -23 -20 -17 7 -20 16
-9 27 10 11 19 8 32 -7z m-221 -41 c59 -27 59 -27 38 -129 -17 -77 -15 -83 43
-185 36 -64 40 -81 20 -81 -9 0 -119 193 -119 209 0 6 -20 48 -44 94 -24 45
-47 93 -51 106 -7 22 -5 23 27 16 18 -4 57 -17 86 -30z m1807 25 c3 -5 -1 -33
-10 -62 -8 -28 -15 -53 -15 -54 0 -2 30 10 66 26 71 33 84 35 84 20 0 -18
-250 -391 -266 -397 -27 -10 -27 6 0 44 68 97 205 307 202 311 -3 2 -28 -8
-56 -22 -28 -14 -54 -26 -56 -26 -7 0 -4 41 6 79 5 20 12 48 15 64 5 27 19 35
30 17z m-2015 -136 l79 -36 60 -102 c33 -55 72 -117 86 -136 15 -20 21 -36 15
-38 -17 -6 -48 26 -84 87 -18 31 -47 81 -65 111 -25 43 -42 59 -74 73 -23 9
-45 17 -49 17 -8 0 30 -64 125 -211 63 -97 85 -149 63 -149 -7 0 -18 12 -25
27 -7 14 -42 73 -79 129 -157 241 -169 264 -140 264 5 0 44 -16 88 -36z m2207
-76 c-20 -29 -59 -78 -87 -110 -27 -31 -50 -59 -50 -62 0 -3 25 -6 55 -8 79
-4 64 -23 -19 -24 -64 0 -70 -2 -97 -32 -44 -50 -39 -56 42 -49 52 4 69 3 66
-6 -4 -12 -159 -28 -184 -19 -20 7 -15 29 10 49 36 28 165 182 210 248 47 71
67 89 81 75 6 -6 -3 -28 -27 -62z m-2412 -35 c44 -21 40 -37 -10 -41 -44 -4
-57 5 -49 36 8 26 13 27 59 5z m2116 -18 c-1 -15 -24 -12 -29 3 -3 9 2 13 12
10 10 -1 17 -7 17 -13z m-1571 -4 c0 -14 -18 -23 -30 -16 -6 4 -8 11 -5 16 8
12 35 12 35 0z m925 -201 l210 -210 302 0 303 0 0 -303 0 -302 210 -210 c116
-115 210 -214 210 -220 0 -6 -94 -105 -210 -220 -174 -174 -210 -206 -210
-185 0 19 45 70 190 215 l190 190 -190 190 -190 190 0 -120 -1 -120 -19 24
c-17 20 -20 39 -20 140 l0 116 -293 293 -293 292 -414 0 -415 0 -292 -294
-293 -294 0 -419 c0 -403 1 -421 19 -437 20 -18 45 -76 34 -76 -4 0 -17 10
-30 22 l-23 21 0 -266 0 -267 167 -2 c122 -2 167 -6 171 -15 3 -10 -39 -13
-187 -13 l-191 0 0 302 0 303 -212 212 -213 213 213 213 212 212 0 308 0 307
308 0 307 0 210 210 c115 116 214 210 220 210 6 0 105 -94 220 -210z m955 181
c0 -11 -4 -22 -9 -25 -12 -8 -34 21 -26 34 11 17 35 11 35 -9z m217 -118 l-6
-86 27 25 c46 43 82 55 82 27 0 -4 -35 -36 -77 -70 -43 -34 -124 -107 -179
-162 -68 -66 -104 -95 -109 -87 -12 20 14 55 81 111 45 37 65 60 66 78 2 33
-2 95 -7 100 -2 2 -52 -40 -109 -93 -100 -90 -126 -109 -126 -87 0 19 325 331
344 331 18 0 19 -6 13 -87z m-2511 22 c14 -55 -17 -72 -56 -31 -29 32 -21 56
19 56 24 0 32 -5 37 -25z m-276 -132 l74 -73 71 0 c38 0 77 -4 85 -10 20 -13
23 -169 3 -177 -9 -4 -69 48 -161 139 -81 79 -160 154 -175 166 -16 12 -26 25
-23 31 12 20 54 -5 126 -76z m38 44 c2 -12 -3 -17 -17 -17 -15 0 -21 6 -21 21
0 25 33 22 38 -4z m327 -35 c6 -4 21 -22 34 -41 17 -25 20 -35 11 -41 -33 -20
-86 24 -76 65 7 26 14 30 31 17z m2615 -42 c0 -5 -23 -27 -51 -47 l-50 -38 28
-6 c15 -4 49 -7 75 -8 25 0 53 -4 62 -7 23 -9 20 -31 -6 -45 -13 -7 -97 -60
-188 -119 -184 -119 -203 -129 -198 -103 2 10 57 50 123 91 65 40 141 89 168
109 59 44 50 54 -51 55 -64 1 -71 -1 -153 -50 -48 -28 -100 -63 -117 -77 -30
-25 -52 -32 -52 -17 0 19 33 44 162 121 75 45 158 98 185 117 50 36 63 41 63
24z m-3100 -61 c0 -6 -18 -18 -40 -27 -22 -9 -40 -20 -40 -23 0 -7 272 -200
310 -219 29 -15 41 -40 19 -40 -13 0 -241 152 -279 185 -31 28 -70 48 -77 41
-5 -4 2 -30 22 -78 9 -22 -17 -25 -33 -5 -14 17 -32 130 -23 140 8 8 95 34
124 36 9 0 17 -4 17 -10z m50 -69 c0 -6 -9 -10 -20 -10 -13 0 -20 7 -20 20 0
18 3 19 20 10 11 -6 20 -15 20 -20z m3195 -101 c10 -15 -17 -33 -144 -96
l-115 -56 51 -22 c53 -24 70 -40 54 -50 -6 -3 -36 8 -68 25 -52 28 -62 30 -94
21 -20 -6 -42 -17 -48 -25 -11 -13 11 -26 93 -56 21 -8 26 -14 18 -22 -13 -13
-173 49 -180 70 -2 7 17 21 50 34 82 34 237 111 303 152 66 39 71 41 80 25z
m-3405 -172 l66 -70 134 -4 c74 -3 139 -9 144 -14 19 -18 -51 -30 -159 -28
l-110 3 -87 88 c-49 48 -88 95 -88 104 0 23 19 8 100 -79z m3333 67 c8 -9 -11
-44 -23 -44 -6 0 -10 11 -10 25 0 23 18 34 33 19z m-3188 -53 c3 -5 -4 -13
-16 -16 -23 -8 -34 -1 -24 14 8 13 32 14 40 2z m3385 -124 c0 -17 -54 -69 -63
-60 -12 11 -8 48 9 71 12 18 19 20 35 12 10 -6 19 -16 19 -23z m-3462 -71
c134 -45 188 -67 190 -79 5 -25 -18 -21 -112 18 -94 39 -116 42 -116 19 0 -33
42 -68 113 -96 40 -15 78 -28 85 -28 6 0 12 -7 12 -15 0 -23 -32 -18 -142 24
-57 21 -118 42 -135 46 -18 3 -33 11 -33 15 0 5 -27 41 -60 81 -92 110 -88
110 198 15z m3298 20 c10 -26 -15 -56 -47 -56 -40 0 -50 27 -20 52 28 22 59
24 67 4z m-192 -65 c21 -23 7 -36 -46 -44 -47 -7 -57 7 -27 39 27 29 50 31 73
5z m-3185 -151 c118 -22 217 -42 219 -45 2 -2 1 -9 -3 -15 -10 -16 -69 -8
-243 35 -77 19 -143 35 -146 35 -16 0 -2 -30 27 -56 28 -27 52 -35 182 -64 83
-18 157 -33 164 -35 8 -1 17 -7 19 -13 7 -21 -72 -13 -209 22 l-134 34 -62 68
c-65 70 -76 89 -45 80 9 -3 113 -24 231 -46z m3510 25 c91 -14 130 -29 100
-39 -8 -3 -61 3 -118 13 l-104 17 -61 -40 c-34 -22 -83 -57 -109 -78 -52 -40
-67 -46 -67 -25 0 19 66 79 132 121 31 20 60 41 64 47 4 7 18 8 38 4 17 -4 73
-13 125 -20z m-105 -94 c6 -10 -22 -37 -29 -29 -8 7 5 38 15 38 5 0 11 -4 14
-9z m234 -119 c2 -8 -10 -12 -35 -13 -21 -1 -50 -4 -65 -8 -27 -6 -25 -8 42
-56 69 -49 83 -68 57 -78 -29 -11 -464 -20 -471 -9 -10 17 20 22 197 29 244 9
245 10 147 77 l-55 38 -147 -4 c-82 -2 -148 -1 -148 3 0 20 40 24 240 30 247
6 233 6 238 -9z m-3476 -115 c34 -35 42 -74 13 -68 -11 2 -115 4 -231 5 -115
2 -216 6 -222 10 -7 4 -12 13 -12 20 0 13 162 116 182 116 6 0 26 -16 44 -37
l32 -36 54 46 53 47 30 -38 c16 -20 42 -49 57 -65z m3211 -114 l148 -18 67
-61 c37 -34 65 -64 62 -66 -5 -5 -123 1 -367 17 -78 6 -103 11 -103 21 0 19
108 18 265 -1 65 -8 123 -15 127 -15 18 0 5 27 -25 51 -29 23 -46 27 -162 38
-71 6 -149 11 -172 11 -42 0 -60 11 -48 30 9 14 39 13 208 -7z m-3405 -55 c17
-17 15 -45 -4 -52 -52 -20 -90 10 -58 45 20 22 45 24 62 7z m198 2 c32 0 31
-25 -2 -47 -28 -18 -48 -12 -68 20 -12 20 9 41 32 32 8 -3 25 -5 38 -5z m-366
-17 c0 -10 -9 -29 -20 -43 -16 -20 -22 -23 -37 -14 -29 18 -26 39 9 56 43 22
48 22 48 1z m3635 -153 c29 0 184 -145 170 -158 -10 -10 -419 66 -442 81 -20
13 -15 27 10 27 12 0 54 -9 92 -20 119 -34 153 -24 97 28 -27 26 -134 62 -181
62 -29 0 -36 19 -10 28 15 6 58 0 132 -20 60 -15 119 -28 132 -28z m-3405 -15
c0 -8 -7 -15 -15 -15 -8 0 -15 7 -15 15 0 8 7 15 15 15 8 0 15 -7 15 -15z
m-191 -71 c-27 -28 -19 -30 66 -10 110 25 316 58 322 52 15 -15 -20 -28 -123
-45 -121 -21 -241 -48 -256 -57 -6 -4 5 -13 23 -21 32 -13 33 -15 16 -28 -11
-7 -26 -11 -35 -8 -31 11 -102 55 -102 63 0 15 44 62 74 81 38 23 47 7 15 -27z
m3363 -119 c18 -41 -2 -51 -51 -26 -57 30 -55 51 6 51 26 0 36 -6 45 -25z
m-2997 -36 c87 -35 115 -54 100 -68 -6 -5 -75 -30 -155 -56 -80 -27 -180 -63
-223 -81 -99 -43 -106 -31 -44 67 26 39 48 76 50 82 3 9 49 -1 118 -28 12 -4
20 9 34 55 10 33 23 60 29 60 6 0 47 -14 91 -31z m2515 -269 l0 -270 -126 0
c-96 0 -125 3 -122 13 3 8 36 13 106 15 l102 3 0 214 c0 174 3 222 16 255 9
22 18 40 20 40 2 0 4 -121 4 -270z m672 247 c12 -19 10 -25 -17 -43 -24 -16
-27 -16 -45 1 -20 18 -26 46 -13 59 11 11 65 -2 75 -17z m166 -52 c13 -29 9
-33 -47 -37 -46 -4 -50 17 -9 42 42 25 42 25 56 -5z m-225 -125 c149 -58 182
-79 161 -100 -11 -11 -202 -42 -214 -35 -4 3 -14 25 -21 50 -7 25 -16 45 -20
45 -3 0 -32 -9 -64 -20 -32 -11 -61 -20 -64 -20 -4 0 -12 21 -20 48 -7 26 -19
63 -27 82 -11 28 -13 55 -5 77 1 1 27 -13 59 -32 31 -19 128 -62 215 -95z
m-3183 -50 c0 -11 -4 -20 -9 -20 -14 0 -23 18 -16 30 10 17 25 11 25 -10z
m245 -10 c-4 -6 -71 -42 -148 -80 -78 -37 -170 -87 -205 -109 -67 -44 -82 -49
-82 -27 0 17 19 33 88 72 l54 31 -103 7 c-57 4 -106 9 -108 12 -15 14 29 18
140 13 l124 -5 115 57 c104 52 145 61 125 29z m2606 -16 c17 -21 239 -169 300
-200 48 -24 69 -47 55 -61 -9 -10 -102 38 -157 79 -25 20 -58 43 -72 53 l-27
17 6 -59 c4 -38 3 -63 -4 -67 -17 -10 -22 7 -23 77 -2 69 -8 81 -57 107 -13 6
-26 9 -29 6 -3 -2 -1 -31 5 -63 6 -32 7 -62 2 -67 -15 -15 -29 30 -36 113 -6
69 -5 81 8 81 9 0 21 -7 29 -16z m-2521 -102 c0 -14 -41 -47 -150 -121 -105
-71 -160 -115 -160 -126 0 -4 12 -5 28 -3 18 2 27 -2 27 -11 0 -25 -30 -34
-88 -27 -52 7 -57 10 -57 32 0 26 33 98 49 108 16 10 22 -11 11 -39 -9 -23 -8
-26 5 -21 12 4 117 77 285 197 27 20 50 24 50 11z m-196 -40 c2 -4 1 -14 -4
-22 -7 -11 -12 -12 -21 -3 -6 6 -8 16 -5 22 8 13 23 14 30 3z m2655 -66 c45
-35 90 -75 101 -89 11 -14 50 -49 85 -77 64 -51 93 -86 81 -97 -11 -11 -156
-5 -170 6 -7 6 -19 47 -26 90 l-12 78 -77 64 c-42 34 -78 64 -80 65 -3 3 8 24
14 24 2 0 40 -29 84 -64z m-2376 -10 c3 -8 -3 -45 -14 -83 -10 -37 -19 -69
-19 -70 0 -11 26 3 71 37 29 22 55 37 58 35 11 -11 -26 -58 -77 -96 -30 -23
-79 -65 -110 -94 -88 -82 -166 -144 -174 -139 -18 12 -3 32 58 79 87 66 124
109 124 143 0 32 39 171 53 190 13 16 24 15 30 -2z m2667 -26 c0 -22 -7 -25
-29 -11 -16 10 -6 31 15 31 8 0 14 -9 14 -20z m-433 -77 c21 -25 66 -79 101
-119 34 -40 62 -81 62 -93 0 -11 7 -52 15 -92 23 -109 10 -109 -88 -3 -182
194 -231 254 -218 267 10 9 18 5 38 -18 125 -150 143 -163 143 -108 0 39 -27
87 -81 143 -27 28 -47 56 -44 61 13 19 35 7 72 -38z m113 32 c0 -8 -6 -15 -14
-15 -20 0 -29 17 -14 23 22 9 28 7 28 -8z m-2106 -138 c17 -12 9 -24 -93 -146
-61 -74 -128 -160 -148 -192 -59 -91 -73 -79 -72 60 l2 83 33 14 c18 8 45 14
59 14 34 0 39 18 21 79 -10 34 -11 53 -4 57 5 4 47 14 92 24 44 9 84 18 87 19
3 0 13 -5 23 -12z m-417 -23 c8 -21 -13 -42 -28 -27 -13 13 -5 43 11 43 6 0
13 -7 17 -16z m2221 0 c12 -8 22 -26 22 -38 0 -27 -21 -48 -36 -38 -13 8 -44
66 -44 82 0 15 32 12 58 -6z m-1711 -53 c7 -11 17 -50 23 -87 6 -37 13 -71 16
-75 5 -8 -98 -186 -148 -255 -30 -42 -58 -57 -58 -33 0 7 29 55 64 109 97 147
96 146 88 236 l-7 78 -51 -75 c-28 -41 -77 -123 -109 -182 -54 -101 -76 -129
-92 -113 -19 18 218 416 247 416 8 0 21 -9 27 -19z m189 -189 c0 -96 -1 -103
-24 -124 l-25 -23 6 117 c5 120 10 142 30 135 8 -2 12 -38 13 -105z m-108
-120 c3 -9 -2 -13 -14 -10 -9 1 -19 9 -22 16 -3 9 2 13 14 10 9 -1 19 -9 22
-16z"/>
<path d="M1920 4005 c0 -14 5 -25 11 -25 6 0 31 -14 56 -30 43 -29 44 -29 37
-8 -3 13 -7 23 -8 23 0 0 -20 15 -43 33 -23 17 -44 32 -47 32 -3 0 -6 -11 -6
-25z"/>
<path d="M2225 4027 c-31 -35 -45 -65 -45 -96 l0 -35 29 28 c17 16 31 42 35
64 6 39 -3 57 -19 39z"/>
<path d="M1725 3819 c4 -30 9 -56 12 -59 6 -6 42 42 43 56 0 11 -23 34 -49 49
-11 6 -12 -2 -6 -46z"/>
<path d="M2611 3958 c-5 -15 -4 -26 5 -33 7 -5 24 -28 38 -49 20 -30 26 -34
26 -18 0 20 -47 122 -56 122 -2 0 -8 -10 -13 -22z"/>
<path d="M2884 3845 c-35 -21 -72 -70 -61 -81 2 -3 19 2 38 10 23 9 41 27 52
51 10 21 16 39 15 41 -2 2 -22 -8 -44 -21z"/>
<path d="M1267 3771 c16 -27 29 -48 31 -47 1 2 7 17 12 35 8 28 6 33 -20 46
-47 24 -52 18 -23 -34z"/>
<path d="M1942 3387 c-100 -100 -182 -186 -182 -190 0 -4 170 -7 377 -7 l378
0 -190 190 c-104 105 -192 190 -195 190 -3 0 -87 -82 -188 -183z"/>
<path d="M1130 2888 l0 -273 265 265 c146 146 265 268 265 272 0 5 -119 8
-265 8 l-265 0 0 -272z"/>
<path d="M2860 2895 c146 -146 266 -265 267 -265 2 0 3 119 3 265 l0 265 -267
0 -268 0 265 -265z"/>
<path d="M899 2342 c-98 -98 -179 -182 -179 -188 0 -5 83 -92 185 -194 l185
-185 0 373 c0 204 -3 372 -6 372 -3 0 -86 -80 -185 -178z"/>
<path d="M3462 3461 c-10 -6 -12 -23 -6 -70 8 -76 21 -68 28 17 6 62 3 69 -22
53z"/>
<path d="M876 3209 c16 -17 41 -40 57 -51 l27 -19 0 50 0 51 -57 0 -57 0 30
-31z"/>
<path d="M350 2741 c0 -18 45 -64 76 -77 47 -20 48 -19 24 24 -14 25 -34 43
-54 50 -39 14 -46 15 -46 3z"/>
<path d="M297 2253 c-20 -14 -35 -28 -33 -31 3 -2 32 -1 66 3 l61 7 -22 24
c-27 29 -25 29 -72 -3z"/>
<path d="M496 2251 l-29 -30 25 -6 c14 -4 42 -5 62 -3 l37 3 -33 33 -34 32
-28 -29z"/>
<path d="M3859 1853 c25 -43 42 -55 83 -60 l43 -6 -25 28 c-39 43 -122 74
-101 38z"/>
<path d="M580 1625 c0 -13 -3 -30 -6 -39 -5 -12 1 -14 33 -9 21 3 51 11 66 17
27 11 27 11 -33 33 l-60 22 0 -24z"/>
<path d="M392 1536 c-25 -42 -25 -41 45 -19 58 18 66 28 29 37 -13 3 -31 8
-39 12 -9 3 -22 -7 -35 -30z"/>
<path d="M3559 1483 c10 -27 23 -47 27 -46 43 12 64 24 59 33 -4 6 -29 22 -56
35 l-49 25 19 -47z"/>
<path d="M3731 1397 c5 -18 9 -33 9 -35 0 -5 74 10 88 17 7 4 -12 16 -47 28
l-59 22 9 -32z"/>
<path d="M3502 995 c3 -40 3 -40 48 -43 l45 -3 -37 26 c-20 14 -42 33 -48 43
-8 13 -10 9 -8 -23z"/>
<path d="M3330 859 c0 -34 7 -52 30 -79 l29 -35 1 38 c0 40 -18 85 -44 106
-14 12 -16 8 -16 -30z"/>
<path d="M1132 910 c-45 -10 -47 -14 -26 -49 l18 -30 38 37 c21 20 38 40 38
45 0 9 -23 8 -68 -3z"/>
<path d="M1033 758 c-42 -9 -43 -10 -43 -49 0 -21 2 -39 3 -39 2 0 23 23 46
50 23 28 41 50 39 49 -2 -1 -22 -5 -45 -11z"/>
</g>
</svg>
